<?xml version="1.0" encoding="UTF-8" standalone="no"?>
<!DOCTYPE svg PUBLIC "-//W3C//DTD SVG 1.1//EN"
 "http://www.w3.org/Graphics/SVG/1.1/DTD/svg11.dtd">
<!-- Generated by graphviz version 2.47.3 (20210619.1520)
 -->
<!-- Title: dependencies Pages: 1 -->
<svg width="302pt" height="250pt"
 viewBox="0.00 0.00 302.00 249.80" xmlns="http://www.w3.org/2000/svg" xmlns:xlink="http://www.w3.org/1999/xlink">
<g id="graph0" class="graph" transform="scale(1 1) rotate(0) translate(4 245.8)">
<title>dependencies</title>
<polygon fill="white" stroke="transparent" points="-4,4 -4,-245.8 298,-245.8 298,4 -4,4"/>
<text text-anchor="middle" x="147" y="-8.2" font-family="sans-serif" font-size="14.00">dependencies</text>
<g id="clust1" class="cluster">
<title>cluster_AppModule</title>
<polygon fill="none" stroke="black" stroke-dasharray="1,5" points="8,-108.8 8,-233.8 270,-233.8 270,-108.8 8,-108.8"/>
</g>
<g id="clust3" class="cluster">
<title>cluster_AppModule_imports</title>
<polygon fill="none" stroke="black" points="154,-116.8 154,-168.8 262,-168.8 262,-116.8 154,-116.8"/>
</g>
<g id="clust6" class="cluster">
<title>cluster_AppModule_providers</title>
<polygon fill="none" stroke="black" points="16,-116.8 16,-168.8 146,-168.8 146,-116.8 16,-116.8"/>
</g>
<g id="clust7" class="cluster">
<title>cluster_UsersModule</title>
<polygon fill="none" stroke="black" stroke-dasharray="1,5" points="130,-32.8 130,-100.8 286,-100.8 286,-32.8 130,-32.8"/>
</g>
<g id="clust12" class="cluster">
<title>cluster_UsersModule_providers</title>
<polygon fill="none" stroke="black" points="138,-40.8 138,-92.8 278,-92.8 278,-40.8 138,-40.8"/>
</g>
<!-- UsersModule -->
<g id="node1" class="node">
<title>UsersModule</title>
<polygon fill="#8dd3c7" stroke="black" points="253.92,-160.8 250.92,-164.8 229.92,-164.8 226.92,-160.8 162.08,-160.8 162.08,-124.8 253.92,-124.8 253.92,-160.8"/>
<text text-anchor="middle" x="208" y="-138.6" font-family="Times,serif" font-size="14.00">UsersModule</text>
</g>
<!-- AppModule -->
<g id="node2" class="node">
<title>AppModule</title>
<polygon fill="#8dd3c7" stroke="black" points="185.66,-225.8 182.66,-229.8 161.66,-229.8 158.66,-225.8 102.34,-225.8 102.34,-189.8 185.66,-189.8 185.66,-225.8"/>
<text text-anchor="middle" x="144" y="-203.6" font-family="Times,serif" font-size="14.00">AppModule</text>
</g>
<!-- UsersModule&#45;&gt;AppModule -->
<g id="edge1" class="edge">
<title>UsersModule&#45;&gt;AppModule</title>
<path fill="none" stroke="black" d="M174.06,-160.91C174.06,-160.91 174.06,-179.79 174.06,-179.79"/>
<polygon fill="black" stroke="black" points="170.56,-179.79 174.06,-189.79 177.56,-179.79 170.56,-179.79"/>
</g>
<!-- AppService -->
<g id="node3" class="node">
<title>AppService</title>
<ellipse fill="#fdb462" stroke="black" cx="81" cy="-142.8" rx="56.74" ry="18"/>
<text text-anchor="middle" x="81" y="-138.6" font-family="Times,serif" font-size="14.00">AppService</text>
</g>
<!-- AppService&#45;&gt;AppModule -->
<g id="edge2" class="edge">
<title>AppService&#45;&gt;AppModule</title>
<path fill="none" stroke="black" d="M119.9,-155.95C119.9,-155.95 119.9,-179.49 119.9,-179.49"/>
<polygon fill="black" stroke="black" points="116.4,-179.49 119.9,-189.49 123.4,-179.49 116.4,-179.49"/>
</g>
<!-- UsersService -->
<g id="node4" class="node">
<title>UsersService</title>
<ellipse fill="#fdb462" stroke="black" cx="208" cy="-66.8" rx="61.95" ry="18"/>
<text text-anchor="middle" x="208" y="-62.6" font-family="Times,serif" font-size="14.00">UsersService</text>
</g>
<!-- UsersService&#45;&gt;UsersModule -->
<g id="edge3" class="edge">
<title>UsersService&#45;&gt;UsersModule</title>
<path fill="none" stroke="black" d="M208,-84.81C208,-84.81 208,-114.65 208,-114.65"/>
<polygon fill="black" stroke="black" points="204.5,-114.65 208,-124.65 211.5,-114.65 204.5,-114.65"/>
</g>
</g>
</svg>
